# xmcd
#
# Track frame offsets: 
#        150
#        14507
#        33876
#        54464
#        69002
#        90036
#        106565
#        116384
#        133256
#
# Disc length: 2100 seconds
#
# Revision: 0
# Processed by: cddbd v1.5.2PL0 Copyright (c) Steve Scherf et al.
# Submitted via: ExactAudioCopyFreeDBPlugin 1.0
#
DISCID=5e083209
DTITLE=Lilli Lewis - The Henderson Sessions
DYEAR=2018
DGENRE=Blues
TTITLE0=Sitting on Top of the World
TTITLE1=Blue Rock
TTITLE2=Our Short Walk Through Life
TTITLE3=One Shoe
TTITLE4=Coffee Shop Girl
TTITLE5=Nobody's Fault But Mine
TTITLE6=Save the Country
TTITLE7=Why We Build the Wall
TTITLE8=Turn it Around
EXTD=
EXTT0=
EXTT1=
EXTT2=
EXTT3=
EXTT4=
EXTT5=
EXTT6=
EXTT7=
EXTT8=
PLAYORDER=
